<mxfile host="app.diagrams.net" modified="2023-12-08T16:40:20.646Z" agent="Mozilla/5.0 (Windows NT 10.0; Win64; x64) AppleWebKit/537.36 (KHTML, like Gecko) Chrome/119.0.0.0 Safari/537.36 Edg/119.0.0.0" version="22.1.7" etag="3gwEpx6WJyLguG3FSFxN" type="github">
  <diagram name="PÃ¡gina-1" id="K3QeqvNJg61RO6G0FrYo">
    <mxGraphModel>
      <root>
        <mxCell id="0" />
        <mxCell id="1" parent="0" />
      </root>
    </mxGraphModel>
  </diagram>
</mxfile>
